HIERARCHY
ROOT Hips
{
	OFFSET 0.000000 0.000000 0.000000
	CHANNELS 6 Xposition Yposition Zposition Xrotation Yrotation Zrotation
	JOINT LeftUpLeg_virtual
	{
		OFFSET 0.000000 0.000000 0.000000
		CHANNELS 3 Xrotation Yrotation Zrotation
		JOINT LeftUpLeg
		{
			OFFSET 15.427100 -6.655098 0.678600
			CHANNELS 3 Xrotation Yrotation Zrotation
			JOINT LeftLeg
			{
				OFFSET 4.081073 -39.591068 13.024000
				CHANNELS 3 Xrotation Yrotation Zrotation
				JOINT LeftFoot
				{
					OFFSET -4.081074 -37.707932 -15.979700
					CHANNELS 3 Xrotation Yrotation Zrotation
					JOINT LeftToeBase
					{
						OFFSET 5.346399 -15.068900 20.645000
						CHANNELS 3 Xrotation Yrotation Zrotation
						JOINT LeftToe_End
						{
							OFFSET 2.754700 0.931300 11.300900
							CHANNELS 3 Xrotation Yrotation Zrotation
							End Site
							{
								OFFSET 0 0 0
							}
						}
					}
				}
			}
		}
	}
	JOINT RightUpLeg_virtual
	{
		OFFSET 0.000000 0.000000 0.000000
		CHANNELS 3 Xrotation Yrotation Zrotation
		JOINT RightUpLeg
		{
			OFFSET -15.569500 -6.655098 0.678600
			CHANNELS 3 Xrotation Yrotation Zrotation
			JOINT RightLeg
			{
				OFFSET -4.081825 -39.591045 13.023800
				CHANNELS 3 Xrotation Yrotation Zrotation
				JOINT RightFoot
				{
					OFFSET 4.081824 -37.707954 -15.979600
					CHANNELS 3 Xrotation Yrotation Zrotation
					JOINT RightToeBase
					{
						OFFSET -5.346400 -15.068900 20.645000
						CHANNELS 3 Xrotation Yrotation Zrotation
						JOINT RightToe_End
						{
							OFFSET -2.754700 0.931300 11.300900
							CHANNELS 3 Xrotation Yrotation Zrotation
							End Site
							{
								OFFSET 0 0 0
							}
						}
					}
				}
			}
		}
	}
	JOINT Spine_virtual
	{
		OFFSET 0.000000 0.000000 0.000000
		CHANNELS 3 Xrotation Yrotation Zrotation
		JOINT Spine
		{
			OFFSET -0.279200 12.230698 -2.892100
			CHANNELS 3 Xrotation Yrotation Zrotation
			JOINT Spine1
			{
				OFFSET -0.232667 10.192268 -1.242267
				CHANNELS 3 Xrotation Yrotation Zrotation
				JOINT Spine1_split
				{
					OFFSET -0.232667 10.192268 -1.242267
					CHANNELS 3 Xrotation Yrotation Zrotation
					JOINT Spine2
					{
						OFFSET -0.232667 10.192268 -1.242267
						CHANNELS 3 Xrotation Yrotation Zrotation
						JOINT Neck_virtual
						{
							OFFSET 0.000000 0.000000 0.000000
							CHANNELS 3 Xrotation Yrotation Zrotation
							JOINT Neck
							{
								OFFSET -0.418800 17.814194 8.416900
								CHANNELS 3 Xrotation Yrotation Zrotation
								JOINT Head
								{
									OFFSET 0.000000 7.031097 3.806800
									CHANNELS 3 Xrotation Yrotation Zrotation
									JOINT HeadTop_End
									{
										OFFSET 0.000000 24.646606 12.978600
										CHANNELS 3 Xrotation Yrotation Zrotation
										End Site
										{
											OFFSET 0 0 0
										}
									}
								}
							}
						}
						JOINT LeftShoulder_virtual
						{
							OFFSET 0.000000 0.000000 0.000000
							CHANNELS 3 Xrotation Yrotation Zrotation
							JOINT LeftShoulder
							{
								OFFSET 8.476499 7.247704 -3.868750
								CHANNELS 3 Xrotation Yrotation Zrotation
								JOINT LeftShoulder_split
								{
									OFFSET 8.476499 7.247704 -3.868750
									CHANNELS 3 Xrotation Yrotation Zrotation
									JOINT LeftArm
									{
										OFFSET 9.308998 -2.777710 0.208600
										CHANNELS 3 Xrotation Yrotation Zrotation
										JOINT LeftForeArm
										{
											OFFSET 29.972298 0.000000 0.000000
											CHANNELS 3 Xrotation Yrotation Zrotation
											JOINT LeftHand
											{
												OFFSET 26.026505 0.000000 0.000000
												CHANNELS 3 Xrotation Yrotation Zrotation
												End Site
												{
													OFFSET 0 0 0
												}
											}
										}
									}
								}
							}
						}
						JOINT RightShoulder_virtual
						{
							OFFSET 0.000000 0.000000 0.000000
							CHANNELS 3 Xrotation Yrotation Zrotation
							JOINT RightShoulder
							{
								OFFSET -7.570500 7.247704 -3.868750
								CHANNELS 3 Xrotation Yrotation Zrotation
								JOINT RightShoulder_split
								{
									OFFSET -7.570500 7.247704 -3.868750
									CHANNELS 3 Xrotation Yrotation Zrotation
									JOINT RightArm
									{
										OFFSET -9.308998 -2.777710 0.208500
										CHANNELS 3 Xrotation Yrotation Zrotation
										JOINT RightForeArm
										{
											OFFSET -29.972300 0.000000 0.000000
											CHANNELS 3 Xrotation Yrotation Zrotation
											JOINT RightHand
											{
												OFFSET -26.026505 0.000000 0.000000
												CHANNELS 3 Xrotation Yrotation Zrotation
												End Site
												{
													OFFSET 0 0 0
												}
											}
										}
									}
								}
							}
						}
					}
				}
			}
		}
	}
}
MOTION
Frames: 7
Frame Time: 0.03333333
3.532564 89.645485 -10.951691 0.000000 0.000000 0.000000 -0.758996 -19.339349 1.309426 -25.045356 30.291646 17.238909 25.600920 3.032299 6.720100 -0.172651 7.644125 -18.417178 -0.946932 -2.233879 -0.322436 0.000000 0.000000 0.000000 -0.503358 -17.319942 1.369854 -9.689225 -12.868733 -10.703288 23.739805 5.127824 -1.326051 -15.086175 -8.576223 21.564058 7.853260 0.763081 -14.536967 0.000000 0.000000 0.000000 -2.463413 -14.400175 0.264976 -0.499656 1.039843 -0.288834 4.303208 -3.932081 0.486107 0.117302 -0.267740 -0.002229 0.000000 0.000000 0.000000 4.768662 -1.149698 0.943350 -9.579988 21.818187 8.216893 -3.318265 -0.474707 -14.914160 0.000000 0.000000 0.000000 4.072540 -3.536881 0.192161 0.623112 3.533473 3.667900 6.659996 -2.089384 0.298470 -55.261705 -1.027372 -42.753511 38.285253 -71.003887 30.660671 0.000000 0.000000 0.000000 4.399023 -3.165703 1.127144 -4.674779 -5.482551 12.217198 -0.592465 -5.002904 3.926836 -53.562924 55.371350 72.002652 -106.465540 84.769129 105.683510 0.000000 0.000000 0.000000 
3.523508 89.637802 -10.945587 0.000000 0.000000 0.000000 -0.755724 -19.363549 1.346773 -25.044526 30.367226 17.238040 25.582636 3.020903 6.695188 -0.178279 7.626524 -18.335583 -0.931267 -2.227174 -0.377696 0.000000 0.000000 0.000000 -0.503316 -17.333989 1.404655 -9.716855 -12.966593 -10.698824 23.777465 5.176539 -1.390309 -15.128147 -8.512023 21.467314 7.904337 0.753032 -14.615292 0.000000 0.000000 0.000000 -2.451859 -14.424048 0.305638 -0.491669 0.981277 -0.290960 4.273034 -3.935911 0.484883 0.116499 -0.270664 -0.002248 0.000000 0.000000 0.000000 4.746284 -1.152907 0.946434 -9.516491 21.870537 8.174497 -3.463179 -0.413110 -14.946047 0.000000 0.000000 0.000000 4.052736 -3.536401 0.195053 0.629797 3.594403 3.623167 6.608087 -2.155894 0.288442 -55.224859 -1.124620 -42.710033 38.310982 -70.939239 30.657997 0.000000 0.000000 0.000000 4.367666 -3.174998 1.126856 -4.664410 -5.466467 12.205432 -0.600703 -5.002159 3.943808 -53.578302 55.432559 71.966438 -106.764552 84.748386 105.975152 0.000000 0.000000 0.000000 
3.516093 89.627861 -10.937775 0.000000 0.000000 0.000000 -0.747143 -19.388120 1.378686 -25.056486 30.449950 17.255565 25.569431 3.006102 6.666462 -0.203056 7.602148 -18.244072 -0.922485 -2.221629 -0.431087 0.000000 0.000000 0.000000 -0.502104 -17.354556 1.433957 -9.748176 -13.067577 -10.697829 23.812929 5.227899 -1.452191 -15.170747 -8.435588 21.353541 7.944022 0.742874 -14.702935 0.000000 0.000000 0.000000 -2.435462 -14.462979 0.344362 -0.484610 0.925600 -0.289182 4.244696 -3.936311 0.484391 0.115104 -0.270164 -0.002735 0.000000 0.000000 0.000000 4.720255 -1.153159 0.949863 -9.448292 21.924525 8.125506 -3.622676 -0.383797 -14.967530 0.000000 0.000000 0.000000 4.038180 -3.533418 0.198747 0.642728 3.633158 3.575469 6.543098 -2.224088 0.286109 -55.227438 -1.221911 -42.646509 38.325035 -70.856389 30.634420 0.000000 0.000000 0.000000 4.342418 -3.179795 1.127133 -4.657113 -5.437216 12.186222 -0.630880 -4.994350 3.954901 -53.547249 55.476641 71.900602 -107.126654 84.714987 106.326135 0.000000 0.000000 0.000000 
3.510116 89.616814 -10.930698 0.000000 0.000000 0.000000 -0.737251 -19.421547 1.407271 -25.076396 30.529959 17.284593 25.567078 2.982494 6.637569 -0.223377 7.572636 -18.178081 -0.933745 -2.217530 -0.478747 0.000000 0.000000 0.000000 -0.501052 -17.390946 1.461437 -9.786270 -13.164268 -10.706139 23.847532 5.277616 -1.506471 -15.198662 -8.353563 21.245570 7.948517 0.733741 -14.794690 0.000000 0.000000 0.000000 -2.418000 -14.521918 0.381214 -0.483722 0.874167 -0.281845 4.219307 -3.933703 0.484177 0.113458 -0.266642 -0.004027 0.000000 0.000000 0.000000 4.691087 -1.150860 0.953571 -9.371300 21.975796 8.070441 -3.775183 -0.396323 -14.974929 0.000000 0.000000 0.000000 4.030357 -3.528649 0.203826 0.660373 3.654406 3.527469 6.466449 -2.299616 0.293476 -55.285515 -1.321465 -42.574540 38.321818 -70.742264 30.586499 0.000000 0.000000 0.000000 4.326301 -3.179412 1.128220 -4.652836 -5.390653 12.153370 -0.677339 -4.971242 3.957216 -53.478418 55.503306 71.821454 -107.275347 84.674463 106.458313 0.000000 0.000000 0.000000 
3.503556 89.606873 -10.921452 0.000000 0.000000 0.000000 -0.730004 -19.469785 1.434568 -25.092957 30.601051 17.312590 25.576782 2.957876 6.615311 -0.234451 7.551998 -18.147732 -0.960397 -2.215949 -0.518418 0.000000 0.000000 0.000000 -0.497328 -17.444781 1.490184 -9.833550 -13.246652 -10.725196 23.883981 5.319480 -1.548941 -15.209802 -8.278859 21.158357 7.919940 0.723007 -14.882171 0.000000 0.000000 0.000000 -2.399798 -14.596678 0.416472 -0.492823 0.825657 -0.268763 4.197828 -3.929601 0.484082 0.113355 -0.260624 -0.005466 0.000000 0.000000 0.000000 4.661323 -1.146854 0.956920 -9.283943 22.021358 8.015057 -3.903437 -0.456839 -14.966196 0.000000 0.000000 0.000000 4.030142 -3.523794 0.210591 0.679376 3.664601 3.483686 6.393067 -2.365429 0.310789 -55.397636 -1.420280 -42.507884 38.306809 -70.592225 30.524095 0.000000 0.000000 0.000000 4.320151 -3.174900 1.130574 -4.651075 -5.325385 12.098099 -0.719377 -4.936157 3.956084 -53.402821 55.519725 71.759060 -106.973350 84.630565 106.133688 0.000000 0.000000 0.000000 
3.496024 89.598068 -10.912148 0.000000 0.000000 0.000000 -0.725240 -19.528575 1.462522 -25.093482 30.658175 17.330575 25.588624 2.939859 6.605347 -0.239892 7.551848 -18.158442 -0.991912 -2.216136 -0.550264 0.000000 0.000000 0.000000 -0.492256 -17.515520 1.521752 -9.885545 -13.305525 -10.755306 23.921918 5.349420 -1.576817 -15.216905 -8.216844 21.092676 7.893193 0.707067 -14.956805 0.000000 0.000000 0.000000 -2.382068 -14.683800 0.449825 -0.511739 0.777922 -0.250520 4.180417 -3.926423 0.484749 0.114221 -0.253061 -0.007186 0.000000 0.000000 0.000000 4.633330 -1.143386 0.960326 -9.190140 22.057030 7.966390 -3.999488 -0.560003 -14.944059 0.000000 0.000000 0.000000 4.037252 -3.520739 0.220393 0.697251 3.671745 3.445250 6.319712 -2.408403 0.333385 -55.555201 -1.517003 -42.463289 38.299056 -70.404559 30.467104 0.000000 0.000000 0.000000 4.323553 -3.168865 1.134182 -4.651607 -5.244941 12.015676 -0.752978 -4.897982 3.937133 -53.348258 55.528294 71.733898 -106.097283 84.583724 105.228435 0.000000 0.000000 0.000000 
3.487264 89.592247 -10.903454 0.000000 0.000000 0.000000 -0.722167 -19.599948 1.491422 -25.064545 30.696783 17.330343 25.583474 2.935978 6.611052 -0.247317 7.581231 -18.213898 -1.026636 -2.216866 -0.575390 0.000000 0.000000 0.000000 -0.484345 -17.597596 1.556008 -9.935628 -13.334757 -10.793294 23.962366 5.363612 -1.589531 -15.231057 -8.173579 21.045054 7.899118 0.683524 -15.010770 0.000000 0.000000 0.000000 -2.363613 -14.780615 0.481310 -0.538753 0.729708 -0.227649 4.167560 -3.924111 0.487014 0.115436 -0.244445 -0.009519 0.000000 0.000000 0.000000 4.608989 -1.141365 0.963928 -9.094897 22.080465 7.929945 -4.063423 -0.691279 -14.917656 0.000000 0.000000 0.000000 4.049853 -3.520364 0.234238 0.711757 3.682476 3.413975 6.249707 -2.425237 0.356215 -55.726923 -1.602833 -42.442621 38.321866 -70.190658 30.442266 0.000000 0.000000 0.000000 4.333787 -3.163195 1.139091 -4.654065 -5.156196 11.905442 -0.784611 -4.866281 3.902716 -53.341418 55.537839 71.759381 -104.647330 84.531657 103.743279 0.000000 0.000000 0.000000 
